<?xml version="1.0" standalone="no"?>
<!DOCTYPE svg PUBLIC "-//W3C//DTD SVG 20010904//EN"
 "http://www.w3.org/TR/2001/REC-SVG-20010904/DTD/svg10.dtd">
<svg version="1.0" xmlns="http://www.w3.org/2000/svg"
 width="1107.000000pt" height="1107.000000pt" viewBox="0 0 1107.000000 1107.000000"
 preserveAspectRatio="xMidYMid meet">
<metadata>
Created by potrace 1.11, written by Peter Selinger 2001-2013
</metadata>
<g transform="translate(0.000000,1107.000000) scale(0.100000,-0.100000)"
fill="#000000" stroke="none">
<path d="M2570 7789 c-536 -53 -980 -268 -1380 -669 -414 -413 -646 -891 -712
-1465 -18 -160 -15 -512 6 -665 64 -472 231 -868 511 -1217 351 -437 797 -727
1287 -837 541 -121 1012 -68 1493 168 238 117 414 244 600 431 432 435 683
943 744 1507 16 140 13 462 -4 608 -52 447 -203 826 -470 1185 -397 533 -909
853 -1507 940 -128 19 -442 27 -568 14z m530 -814 c389 -87 695 -302 948 -664
393 -564 404 -1351 25 -1926 -244 -371 -565 -606 -953 -697 -121 -28 -419 -36
-556 -15 -295 47 -544 172 -763 382 -306 295 -477 621 -537 1027 -23 158 -15
468 15 621 45 222 134 434 253 602 79 112 287 328 390 405 198 150 417 243
653 279 96 15 437 6 525 -14z"/>
<path d="M6709 7607 c-102 -43 -173 -110 -218 -206 l-26 -56 -3 -2059 c-3
-2284 -7 -2127 63 -2233 38 -58 118 -121 182 -146 98 -38 222 -30 315 21 71
38 151 126 176 195 22 56 22 69 22 580 l1 522 354 360 c307 312 356 358 367
344 7 -8 342 -449 745 -980 774 -1020 760 -1003 873 -1045 30 -11 77 -17 140
-18 81 0 102 3 145 24 70 34 138 107 182 197 34 70 38 84 38 157 0 67 -5 91
-26 136 -15 30 -374 512 -798 1070 l-772 1014 769 771 c423 423 779 786 790
806 12 20 29 65 38 100 44 170 -35 342 -199 430 -59 33 -67 34 -167 34 -181 0
-66 102 -1350 -1188 l-1125 -1130 -5 1024 -5 1024 -28 58 c-37 74 -110 147
-183 183 -48 23 -74 29 -148 31 -78 3 -99 0 -147 -20z"/>
</g>
</svg>
