<?xml version="1.0" encoding="utf-8"?>
<!-- Generator: Adobe Illustrator 18.1.1, SVG Export Plug-In . SVG Version: 6.00 Build 0)  -->
<svg version="1.1" id="Layer_1" xmlns="http://www.w3.org/2000/svg" xmlns:xlink="http://www.w3.org/1999/xlink" x="0px" y="0px"
	 viewBox="0 0 300 200" enable-background="new 0 0 300 200" xml:space="preserve">
<linearGradient id="SVGID_1_" gradientUnits="userSpaceOnUse" x1="142.6957" y1="94.4883" x2="20.6786" y2="93.3504">
	<stop  offset="0" style="stop-color:#468DC6"/>
	<stop  offset="1" style="stop-color:#F7931E"/>
</linearGradient>
<path fill="url(#SVGID_1_)" d="M39,48.2c11.8-12.6,26.1-18.8,43-18.8c16.9,0,31.2,6.3,43.1,18.8c11.9,12.6,17.9,27.8,18.1,45.6
	c-0.2,18-6.3,33.3-18,45.8c-11.8,12.6-26.1,18.8-43.1,18.8c-16.9,0-31.3-6.3-43.1-18.8c-11.8-12.6-17.7-27.8-17.9-45.8
	C21.2,76,27.2,60.8,39,48.2z M82,153.7c15.4-0.2,28.5-6.2,39.5-17.8c11-11.6,16.5-25.6,16.6-42.1c-0.1-16.6-5.7-30.7-16.6-42.3
	C110.6,39.8,97.4,34,82,34s-28.6,5.8-39.6,17.5c-11,11.7-16.5,25.8-16.5,42.3c0,16.5,5.5,30.6,16.4,42.2
	C53.3,147.5,66.5,153.4,82,153.7z"/>
<linearGradient id="SVGID_2_" gradientUnits="userSpaceOnUse" x1="178.5078" y1="93.7437" x2="269.0793" y2="93.7437">
	<stop  offset="0" style="stop-color:#468DC6"/>
	<stop  offset="1" style="stop-color:#17417F"/>
</linearGradient>
<path fill="url(#SVGID_2_)" d="M178.5,153.9V33.6c0-1.5,0.8-2.3,2.3-2.3c0.6,0,1.1,0.3,1.6,0.8c0.5,0.5,0.7,1,0.7,1.5V114l82-82
	c0.7-0.6,1.5-0.7,2.3-0.4c0.8,0.3,1.3,0.8,1.5,1.5c0.2,0.7,0,1.4-0.6,2.1l-51.1,51.1l51.3,65.9c0.6,1,0.7,1.8,0.3,2.7
	c-0.4,0.8-0.9,1.3-1.5,1.3c-0.6,0-1.3-0.3-2.1-0.9l-51.1-65.7l-30.9,31.1v33.2c0,0.6-0.2,1.1-0.7,1.6c-0.5,0.5-1,0.7-1.6,0.7
	C179.3,156.2,178.5,155.4,178.5,153.9z"/>
</svg>
