<?xml version="1.0" encoding="utf-8"?>
<!-- Generator: Adobe Illustrator 18.1.1, SVG Export Plug-In . SVG Version: 6.00 Build 0)  -->
<svg version="1.1" id="Layer_1" xmlns="http://www.w3.org/2000/svg" xmlns:xlink="http://www.w3.org/1999/xlink" x="0px" y="0px"
	 viewBox="0 0 100 100" enable-background="new 0 0 100 100" xml:space="preserve">
<linearGradient id="SVGID_1_" gradientUnits="userSpaceOnUse" x1="5.5649" y1="48.8518" x2="90.3112" y2="48.8518">
	<stop  offset="0" style="stop-color:#FF9715"/>
	<stop  offset="0.534" style="stop-color:#468DC6"/>
	<stop  offset="1" style="stop-color:#17417F"/>
</linearGradient>
<path fill="url(#SVGID_1_)" d="M5.6,48.9c0-6.1,2.1-11.2,6.1-15.4c4-4.2,8.9-6.4,14.6-6.4c5.7,0,10.6,2.1,14.6,6.4
	c4,4.2,6,9.4,6,15.4c0,6.1-2,11.2-6,15.4c-4,4.2-8.8,6.4-14.6,6.4c-5.8,0-10.6-2.1-14.6-6.4C7.6,60.1,5.6,54.9,5.6,48.9z M26.2,30.1
	c-4.9,0-9,1.8-12.5,5.4c-3.5,3.6-5.2,8-5.2,13.3c0,5.3,1.7,9.7,5.2,13.4c3.5,3.6,7.6,5.5,12.4,5.5c4.8,0,9-1.8,12.4-5.5
	c3.4-3.7,5.2-8.1,5.2-13.3c0-5.3-1.8-9.7-5.2-13.3C35.2,31.9,31.1,30.1,26.2,30.1z"/>
<linearGradient id="SVGID_2_" gradientUnits="userSpaceOnUse" x1="6.2218" y1="49.22" x2="92.6476" y2="49.22">
	<stop  offset="0" style="stop-color:#FF9715"/>
	<stop  offset="0.534" style="stop-color:#468DC6"/>
	<stop  offset="1" style="stop-color:#17417F"/>
</linearGradient>
<path fill="url(#SVGID_2_)" d="M59.7,69.2V29.3c0-0.4,0.1-0.8,0.4-1.1c0.3-0.3,0.6-0.5,1-0.5c0.4,0,0.8,0.1,1.1,0.4
	c0.3,0.3,0.5,0.7,0.5,1.1v24.9l26-26c0.3-0.3,0.7-0.4,1.1-0.4c0.4,0,0.8,0.1,1,0.4c0.3,0.3,0.4,0.6,0.4,1S91,30,90.7,30.4L74.3,46.8
	l16.8,21.4c0.5,0.7,0.5,1.5-0.2,2.1c-0.2,0.2-0.6,0.3-1,0.3c-0.5,0-0.8-0.2-1-0.6L72.1,49l-9.5,9.5v10.7c0,0.4-0.2,0.8-0.5,1
	c-0.3,0.3-0.7,0.4-1.1,0.4c-0.4,0-0.8-0.1-1-0.4C59.8,69.9,59.7,69.6,59.7,69.2z"/>
</svg>
